<mxfile host="Electron" modified="2024-02-19T16:51:02.608Z" agent="Mozilla/5.0 (Windows NT 10.0; Win64; x64) AppleWebKit/537.36 (KHTML, like Gecko) draw.io/23.0.2 Chrome/120.0.6099.109 Electron/28.1.0 Safari/537.36" etag="3nmisip1NENKhtB4FIM8" version="23.0.2" type="device">
  <diagram name="Page-1" id="3cckBhtqgJLs7Gfw3irY">
    <mxGraphModel dx="1434" dy="844" grid="1" gridSize="10" guides="1" tooltips="1" connect="1" arrows="1" fold="1" page="1" pageScale="1" pageWidth="1100" pageHeight="850" math="0" shadow="0">
      <root>
        <mxCell id="0" />
        <mxCell id="1" parent="0" />
        <mxCell id="LAHnYcq1SH6pc476glKl-2" value="" style="whiteSpace=wrap;html=1;rounded=0;glass=0;fillColor=none;fontFamily=Courier New;" parent="1" vertex="1">
          <mxGeometry x="690" y="20" width="380" height="820" as="geometry" />
        </mxCell>
        <mxCell id="LAHnYcq1SH6pc476glKl-4" value="k8s Cluster" style="rounded=1;whiteSpace=wrap;html=1;fontFamily=Courier New;fillColor=#0050ef;fontColor=#ffffff;strokeColor=#001DBC;" parent="1" vertex="1">
          <mxGeometry x="710" y="50" width="340" height="70" as="geometry" />
        </mxCell>
        <mxCell id="LAHnYcq1SH6pc476glKl-5" value="k8s Cluster" style="rounded=1;whiteSpace=wrap;html=1;fontFamily=Courier New;fillColor=#0050ef;fontColor=#ffffff;strokeColor=#001DBC;" parent="1" vertex="1">
          <mxGeometry x="710" y="140" width="340" height="70" as="geometry" />
        </mxCell>
        <mxCell id="LAHnYcq1SH6pc476glKl-6" value="" style="rounded=1;whiteSpace=wrap;html=1;fontFamily=Courier New;" parent="1" vertex="1">
          <mxGeometry x="710" y="230" width="340" height="140" as="geometry" />
        </mxCell>
        <mxCell id="LAHnYcq1SH6pc476glKl-7" value="VM" style="rounded=1;whiteSpace=wrap;html=1;fontFamily=Courier New;fillColor=#e51400;fontColor=#ffffff;strokeColor=#B20000;" parent="1" vertex="1">
          <mxGeometry x="730" y="250" width="60" height="40" as="geometry" />
        </mxCell>
        <mxCell id="LAHnYcq1SH6pc476glKl-13" value="VM" style="rounded=1;whiteSpace=wrap;html=1;fontFamily=Courier New;fillColor=#e51400;fontColor=#ffffff;strokeColor=#B20000;" parent="1" vertex="1">
          <mxGeometry x="810" y="250" width="60" height="40" as="geometry" />
        </mxCell>
        <mxCell id="LAHnYcq1SH6pc476glKl-14" value="VM" style="rounded=1;whiteSpace=wrap;html=1;fontFamily=Courier New;fillColor=#e51400;fontColor=#ffffff;strokeColor=#B20000;" parent="1" vertex="1">
          <mxGeometry x="890" y="250" width="60" height="40" as="geometry" />
        </mxCell>
        <mxCell id="LAHnYcq1SH6pc476glKl-15" value="VM" style="rounded=1;whiteSpace=wrap;html=1;fontFamily=Courier New;fillColor=#e51400;fontColor=#ffffff;strokeColor=#B20000;" parent="1" vertex="1">
          <mxGeometry x="970" y="250" width="60" height="40" as="geometry" />
        </mxCell>
        <mxCell id="LAHnYcq1SH6pc476glKl-16" value="VM" style="rounded=1;whiteSpace=wrap;html=1;fontFamily=Courier New;fillColor=#e51400;fontColor=#ffffff;strokeColor=#B20000;" parent="1" vertex="1">
          <mxGeometry x="970" y="310" width="60" height="40" as="geometry" />
        </mxCell>
        <mxCell id="LAHnYcq1SH6pc476glKl-17" value="VM" style="rounded=1;whiteSpace=wrap;html=1;fontFamily=Courier New;fillColor=#e51400;fontColor=#ffffff;strokeColor=#B20000;" parent="1" vertex="1">
          <mxGeometry x="730" y="310" width="60" height="40" as="geometry" />
        </mxCell>
        <mxCell id="LAHnYcq1SH6pc476glKl-18" value="VM" style="rounded=1;whiteSpace=wrap;html=1;fontFamily=Courier New;fillColor=#e51400;fontColor=#ffffff;strokeColor=#B20000;" parent="1" vertex="1">
          <mxGeometry x="810" y="310" width="60" height="40" as="geometry" />
        </mxCell>
        <mxCell id="LAHnYcq1SH6pc476glKl-19" value="VM" style="rounded=1;whiteSpace=wrap;html=1;fontFamily=Courier New;fillColor=#e51400;fontColor=#ffffff;strokeColor=#B20000;" parent="1" vertex="1">
          <mxGeometry x="890" y="310" width="60" height="40" as="geometry" />
        </mxCell>
        <mxCell id="LAHnYcq1SH6pc476glKl-20" value="Cilium" style="rounded=1;whiteSpace=wrap;html=1;fontFamily=Courier New;fillColor=#60a917;fontColor=#ffffff;strokeColor=#2D7600;" parent="1" vertex="1">
          <mxGeometry x="720" y="60" width="100" height="50" as="geometry" />
        </mxCell>
        <mxCell id="LAHnYcq1SH6pc476glKl-21" value="Cilium" style="rounded=1;whiteSpace=wrap;html=1;fontFamily=Courier New;fillColor=#60a917;fontColor=#ffffff;strokeColor=#2D7600;" parent="1" vertex="1">
          <mxGeometry x="720" y="150" width="100" height="50" as="geometry" />
        </mxCell>
        <mxCell id="LAHnYcq1SH6pc476glKl-22" value="&amp;nbsp; &amp;nbsp; &amp;nbsp; &amp;nbsp; &amp;nbsp; &amp;nbsp; Fake Service" style="rounded=1;whiteSpace=wrap;html=1;fontFamily=Courier New;fillColor=#f0a30a;fontColor=#000000;strokeColor=#BD7000;align=left;" parent="1" vertex="1">
          <mxGeometry x="710" y="390" width="340" height="70" as="geometry" />
        </mxCell>
        <mxCell id="LAHnYcq1SH6pc476glKl-23" value="&amp;nbsp; &amp;nbsp; &amp;nbsp; &amp;nbsp; &amp;nbsp; &amp;nbsp; Fake Service" style="rounded=1;whiteSpace=wrap;html=1;fontFamily=Courier New;fillColor=#f0a30a;fontColor=#000000;strokeColor=#BD7000;align=left;" parent="1" vertex="1">
          <mxGeometry x="710" y="480" width="340" height="70" as="geometry" />
        </mxCell>
        <mxCell id="LAHnYcq1SH6pc476glKl-24" value="Block Storage Service" style="rounded=1;whiteSpace=wrap;html=1;fontFamily=Courier New;fillColor=#6a00ff;fontColor=#ffffff;strokeColor=#3700CC;" parent="1" vertex="1">
          <mxGeometry x="710" y="570" width="340" height="70" as="geometry" />
        </mxCell>
        <mxCell id="LAHnYcq1SH6pc476glKl-25" value="Database Service" style="rounded=1;whiteSpace=wrap;html=1;fontFamily=Courier New;fillColor=#a0522d;fontColor=#ffffff;strokeColor=#6D1F00;" parent="1" vertex="1">
          <mxGeometry x="710" y="660" width="340" height="70" as="geometry" />
        </mxCell>
        <mxCell id="LAHnYcq1SH6pc476glKl-26" value="Network As a Serivce" style="rounded=1;whiteSpace=wrap;html=1;fontFamily=Courier New;fillColor=#fa6800;fontColor=#000000;strokeColor=#C73500;" parent="1" vertex="1">
          <mxGeometry x="710" y="750" width="340" height="70" as="geometry" />
        </mxCell>
        <mxCell id="rc2cW_Wql21K5ErHemMF-33" style="edgeStyle=orthogonalEdgeStyle;rounded=0;orthogonalLoop=1;jettySize=auto;html=1;exitX=1;exitY=0.5;exitDx=0;exitDy=0;entryX=0;entryY=0.25;entryDx=0;entryDy=0;curved=1;" parent="1" source="LAHnYcq1SH6pc476glKl-28" target="LAHnYcq1SH6pc476glKl-22" edge="1">
          <mxGeometry relative="1" as="geometry" />
        </mxCell>
        <mxCell id="LAHnYcq1SH6pc476glKl-28" value="Envoy L7LB" style="shape=hexagon;perimeter=hexagonPerimeter2;whiteSpace=wrap;html=1;fixedSize=1;fontFamily=Courier New;fontSize=14;fillColor=#a20025;strokeColor=#6F0000;fontColor=#ffffff;" parent="1" vertex="1">
          <mxGeometry x="480" y="100" width="120" height="80" as="geometry" />
        </mxCell>
        <mxCell id="rc2cW_Wql21K5ErHemMF-32" style="edgeStyle=orthogonalEdgeStyle;rounded=0;orthogonalLoop=1;jettySize=auto;html=1;exitX=1;exitY=0.5;exitDx=0;exitDy=0;entryX=0;entryY=0.75;entryDx=0;entryDy=0;curved=1;" parent="1" source="LAHnYcq1SH6pc476glKl-29" target="LAHnYcq1SH6pc476glKl-22" edge="1">
          <mxGeometry relative="1" as="geometry" />
        </mxCell>
        <mxCell id="LAHnYcq1SH6pc476glKl-29" value="Envoy L7LB" style="shape=hexagon;perimeter=hexagonPerimeter2;whiteSpace=wrap;html=1;fixedSize=1;fontFamily=Courier New;fontSize=14;fillColor=#a20025;strokeColor=#6F0000;fontColor=#ffffff;" parent="1" vertex="1">
          <mxGeometry x="480" y="300" width="120" height="80" as="geometry" />
        </mxCell>
        <mxCell id="LAHnYcq1SH6pc476glKl-31" value="Envoy L7LB" style="shape=hexagon;perimeter=hexagonPerimeter2;whiteSpace=wrap;html=1;fixedSize=1;fontFamily=Courier New;fontSize=14;fillColor=#a20025;strokeColor=#6F0000;fontColor=#ffffff;" parent="1" vertex="1">
          <mxGeometry x="480" y="500" width="120" height="80" as="geometry" />
        </mxCell>
        <mxCell id="LAHnYcq1SH6pc476glKl-32" value="Envoy L7LB" style="shape=hexagon;perimeter=hexagonPerimeter2;whiteSpace=wrap;html=1;fixedSize=1;fontFamily=Courier New;fontSize=14;fillColor=#a20025;strokeColor=#6F0000;fontColor=#ffffff;" parent="1" vertex="1">
          <mxGeometry x="480" y="700" width="120" height="80" as="geometry" />
        </mxCell>
        <mxCell id="rc2cW_Wql21K5ErHemMF-22" style="rounded=0;orthogonalLoop=1;jettySize=auto;html=1;exitX=1;exitY=0.5;exitDx=0;exitDy=0;entryX=0;entryY=0.5;entryDx=0;entryDy=0;strokeColor=#FF00FF;elbow=vertical;" parent="1" source="LAHnYcq1SH6pc476glKl-33" target="LAHnYcq1SH6pc476glKl-29" edge="1">
          <mxGeometry relative="1" as="geometry" />
        </mxCell>
        <mxCell id="rc2cW_Wql21K5ErHemMF-25" style="rounded=0;orthogonalLoop=1;jettySize=auto;html=1;exitX=1;exitY=0.5;exitDx=0;exitDy=0;entryX=0;entryY=0.5;entryDx=0;entryDy=0;strokeColor=#FF00FF;" parent="1" source="LAHnYcq1SH6pc476glKl-33" target="LAHnYcq1SH6pc476glKl-28" edge="1">
          <mxGeometry relative="1" as="geometry" />
        </mxCell>
        <mxCell id="LAHnYcq1SH6pc476glKl-33" value="Cilium L4LB" style="shape=hexagon;perimeter=hexagonPerimeter2;whiteSpace=wrap;html=1;fixedSize=1;fontFamily=Courier New;fontSize=12;fillColor=#647687;strokeColor=#314354;fontColor=#ffffff;" parent="1" vertex="1">
          <mxGeometry x="280" y="100" width="120" height="80" as="geometry" />
        </mxCell>
        <mxCell id="rc2cW_Wql21K5ErHemMF-23" style="rounded=0;orthogonalLoop=1;jettySize=auto;html=1;exitX=1;exitY=0.5;exitDx=0;exitDy=0;entryX=0;entryY=0.5;entryDx=0;entryDy=0;strokeColor=#00FF00;" parent="1" source="LAHnYcq1SH6pc476glKl-34" target="LAHnYcq1SH6pc476glKl-28" edge="1">
          <mxGeometry relative="1" as="geometry" />
        </mxCell>
        <mxCell id="rc2cW_Wql21K5ErHemMF-24" style="edgeStyle=orthogonalEdgeStyle;rounded=0;orthogonalLoop=1;jettySize=auto;html=1;exitX=1;exitY=0.5;exitDx=0;exitDy=0;entryX=0;entryY=0.5;entryDx=0;entryDy=0;strokeColor=#00FF00;" parent="1" source="LAHnYcq1SH6pc476glKl-34" target="LAHnYcq1SH6pc476glKl-29" edge="1">
          <mxGeometry relative="1" as="geometry" />
        </mxCell>
        <mxCell id="LAHnYcq1SH6pc476glKl-34" value="Cilium L4LB" style="shape=hexagon;perimeter=hexagonPerimeter2;whiteSpace=wrap;html=1;fixedSize=1;fontFamily=Courier New;fontSize=12;fillColor=#647687;strokeColor=#314354;fontColor=#ffffff;" parent="1" vertex="1">
          <mxGeometry x="280" y="300" width="120" height="80" as="geometry" />
        </mxCell>
        <mxCell id="LAHnYcq1SH6pc476glKl-57" style="rounded=0;orthogonalLoop=1;jettySize=auto;html=1;exitX=0.96;exitY=0.7;exitDx=0;exitDy=0;exitPerimeter=0;strokeColor=#990099;fontFamily=Courier New;entryX=0;entryY=0.75;entryDx=0;entryDy=0;" parent="1" source="LAHnYcq1SH6pc476glKl-35" target="LAHnYcq1SH6pc476glKl-34" edge="1">
          <mxGeometry relative="1" as="geometry" />
        </mxCell>
        <mxCell id="rc2cW_Wql21K5ErHemMF-2" value="ECMP" style="edgeLabel;html=1;align=center;verticalAlign=middle;resizable=0;points=[];" parent="LAHnYcq1SH6pc476glKl-57" vertex="1" connectable="0">
          <mxGeometry x="-0.1413" y="-2" relative="1" as="geometry">
            <mxPoint x="7" y="7" as="offset" />
          </mxGeometry>
        </mxCell>
        <mxCell id="LAHnYcq1SH6pc476glKl-58" style="rounded=0;orthogonalLoop=1;jettySize=auto;html=1;exitX=0.875;exitY=0.5;exitDx=0;exitDy=0;exitPerimeter=0;entryX=0.5;entryY=1;entryDx=0;entryDy=0;strokeColor=#990099;fontFamily=Courier New;" parent="1" source="LAHnYcq1SH6pc476glKl-35" target="LAHnYcq1SH6pc476glKl-33" edge="1">
          <mxGeometry relative="1" as="geometry" />
        </mxCell>
        <mxCell id="rc2cW_Wql21K5ErHemMF-8" style="rounded=0;orthogonalLoop=1;jettySize=auto;html=1;exitX=0.947;exitY=0.78;exitDx=0;exitDy=0;exitPerimeter=0;entryX=0;entryY=0.25;entryDx=0;entryDy=0;strokeColor=#990099;" parent="1" source="LAHnYcq1SH6pc476glKl-35" target="rc2cW_Wql21K5ErHemMF-4" edge="1">
          <mxGeometry relative="1" as="geometry" />
        </mxCell>
        <mxCell id="rc2cW_Wql21K5ErHemMF-14" value="ECMP" style="edgeLabel;html=1;align=center;verticalAlign=middle;resizable=0;points=[];" parent="rc2cW_Wql21K5ErHemMF-8" vertex="1" connectable="0">
          <mxGeometry x="0.0352" y="2" relative="1" as="geometry">
            <mxPoint x="7" y="-1" as="offset" />
          </mxGeometry>
        </mxCell>
        <mxCell id="rc2cW_Wql21K5ErHemMF-10" style="rounded=0;orthogonalLoop=1;jettySize=auto;html=1;exitX=0.8;exitY=0.8;exitDx=0;exitDy=0;exitPerimeter=0;entryX=0;entryY=0.25;entryDx=0;entryDy=0;strokeColor=#990099;" parent="1" source="LAHnYcq1SH6pc476glKl-35" target="rc2cW_Wql21K5ErHemMF-5" edge="1">
          <mxGeometry relative="1" as="geometry" />
        </mxCell>
        <mxCell id="rc2cW_Wql21K5ErHemMF-15" value="ECMP" style="edgeLabel;html=1;align=center;verticalAlign=middle;resizable=0;points=[];" parent="rc2cW_Wql21K5ErHemMF-10" vertex="1" connectable="0">
          <mxGeometry x="0.1408" y="3" relative="1" as="geometry">
            <mxPoint y="-26" as="offset" />
          </mxGeometry>
        </mxCell>
        <mxCell id="LAHnYcq1SH6pc476glKl-35" value="SWITCH" style="ellipse;shape=cloud;whiteSpace=wrap;html=1;fontFamily=Courier New;fontSize=16;fillColor=#60a917;strokeColor=#2D7600;fontColor=#ffffff;" parent="1" vertex="1">
          <mxGeometry x="30" y="270" width="170" height="150" as="geometry" />
        </mxCell>
        <mxCell id="LAHnYcq1SH6pc476glKl-59" value="Backend Cluster" style="text;html=1;align=center;verticalAlign=middle;resizable=0;points=[];autosize=1;strokeColor=none;fillColor=none;fontFamily=Courier New;" parent="1" vertex="1">
          <mxGeometry x="690" y="20" width="130" height="30" as="geometry" />
        </mxCell>
        <mxCell id="LAHnYcq1SH6pc476glKl-62" style="edgeStyle=orthogonalEdgeStyle;rounded=0;orthogonalLoop=1;jettySize=auto;html=1;exitX=0.625;exitY=0.2;exitDx=0;exitDy=0;exitPerimeter=0;fontFamily=Courier New;entryX=0.496;entryY=0.94;entryDx=0;entryDy=0;entryPerimeter=0;strokeColor=#FF0000;" parent="1" source="LAHnYcq1SH6pc476glKl-61" target="LAHnYcq1SH6pc476glKl-35" edge="1">
          <mxGeometry relative="1" as="geometry">
            <Array as="points">
              <mxPoint x="114" y="668" />
            </Array>
          </mxGeometry>
        </mxCell>
        <mxCell id="LAHnYcq1SH6pc476glKl-61" value="&lt;font style=&quot;font-size: 16px;&quot;&gt;&lt;br&gt;Router&lt;/font&gt;" style="ellipse;shape=cloud;whiteSpace=wrap;html=1;fontFamily=Courier New;fillColor=#1ba1e2;fontColor=#ffffff;strokeColor=#006EAF;" parent="1" vertex="1">
          <mxGeometry y="630" width="200" height="190" as="geometry" />
        </mxCell>
        <mxCell id="LAHnYcq1SH6pc476glKl-63" value="192.168.96.2" style="text;html=1;align=center;verticalAlign=middle;resizable=0;points=[];autosize=1;strokeColor=none;fillColor=none;fontSize=16;fontFamily=Courier New;" parent="1" vertex="1">
          <mxGeometry x="20" y="810" width="140" height="30" as="geometry" />
        </mxCell>
        <mxCell id="LAHnYcq1SH6pc476glKl-64" value="192.168.96.100" style="text;html=1;align=center;verticalAlign=middle;resizable=0;points=[];autosize=1;strokeColor=none;fillColor=none;fontSize=16;fontFamily=Courier New;" parent="1" vertex="1">
          <mxGeometry x="260" y="70" width="160" height="30" as="geometry" />
        </mxCell>
        <mxCell id="LAHnYcq1SH6pc476glKl-65" value="192.168.96.101" style="text;html=1;align=center;verticalAlign=middle;resizable=0;points=[];autosize=1;strokeColor=none;fillColor=none;fontSize=16;fontFamily=Courier New;" parent="1" vertex="1">
          <mxGeometry x="260" y="270" width="160" height="30" as="geometry" />
        </mxCell>
        <mxCell id="LAHnYcq1SH6pc476glKl-66" value="192.168.96.203" style="text;html=1;align=center;verticalAlign=middle;resizable=0;points=[];autosize=1;strokeColor=none;fillColor=none;fontSize=16;fontFamily=Courier New;" parent="1" vertex="1">
          <mxGeometry x="450" y="670" width="160" height="30" as="geometry" />
        </mxCell>
        <mxCell id="LAHnYcq1SH6pc476glKl-67" value="192.168.96.200" style="text;html=1;align=center;verticalAlign=middle;resizable=0;points=[];autosize=1;strokeColor=none;fillColor=none;fontSize=16;fontFamily=Courier New;" parent="1" vertex="1">
          <mxGeometry x="465" y="70" width="160" height="30" as="geometry" />
        </mxCell>
        <mxCell id="LAHnYcq1SH6pc476glKl-68" value="192.168.96.201" style="text;html=1;align=center;verticalAlign=middle;resizable=0;points=[];autosize=1;strokeColor=none;fillColor=none;fontSize=16;fontFamily=Courier New;" parent="1" vertex="1">
          <mxGeometry x="460" y="270" width="160" height="30" as="geometry" />
        </mxCell>
        <mxCell id="LAHnYcq1SH6pc476glKl-69" value="192.168.96.202" style="text;html=1;align=center;verticalAlign=middle;resizable=0;points=[];autosize=1;strokeColor=none;fillColor=none;fontSize=16;fontFamily=Courier New;" parent="1" vertex="1">
          <mxGeometry x="460" y="470" width="160" height="30" as="geometry" />
        </mxCell>
        <mxCell id="LAHnYcq1SH6pc476glKl-75" style="rounded=0;orthogonalLoop=1;jettySize=auto;html=1;exitX=0.375;exitY=1;exitDx=0;exitDy=0;entryX=0.9;entryY=0.32;entryDx=0;entryDy=0;entryPerimeter=0;strokeColor=#0000FF;fontFamily=Courier New;" parent="1" source="LAHnYcq1SH6pc476glKl-33" target="LAHnYcq1SH6pc476glKl-35" edge="1">
          <mxGeometry relative="1" as="geometry" />
        </mxCell>
        <mxCell id="LAHnYcq1SH6pc476glKl-78" value="BGP" style="edgeLabel;html=1;align=center;verticalAlign=middle;resizable=0;points=[];fontFamily=Courier New;fontSize=12;" parent="LAHnYcq1SH6pc476glKl-75" vertex="1" connectable="0">
          <mxGeometry x="-0.5079" y="1" relative="1" as="geometry">
            <mxPoint x="9" y="26" as="offset" />
          </mxGeometry>
        </mxCell>
        <mxCell id="rc2cW_Wql21K5ErHemMF-3" value="ECMP" style="edgeLabel;html=1;align=center;verticalAlign=middle;resizable=0;points=[];" parent="LAHnYcq1SH6pc476glKl-75" vertex="1" connectable="0">
          <mxGeometry x="0.1172" y="-3" relative="1" as="geometry">
            <mxPoint x="-6" as="offset" />
          </mxGeometry>
        </mxCell>
        <mxCell id="LAHnYcq1SH6pc476glKl-79" style="rounded=0;orthogonalLoop=1;jettySize=auto;html=1;exitX=0;exitY=0.5;exitDx=0;exitDy=0;entryX=0.941;entryY=0.6;entryDx=0;entryDy=0;entryPerimeter=0;strokeColor=#0000FF;fontFamily=Courier New;" parent="1" source="LAHnYcq1SH6pc476glKl-34" target="LAHnYcq1SH6pc476glKl-35" edge="1">
          <mxGeometry relative="1" as="geometry" />
        </mxCell>
        <mxCell id="LAHnYcq1SH6pc476glKl-80" value="BGP" style="edgeLabel;html=1;align=center;verticalAlign=middle;resizable=0;points=[];fontFamily=Courier New;fontSize=12;" parent="LAHnYcq1SH6pc476glKl-79" vertex="1" connectable="0">
          <mxGeometry x="-0.1576" y="-1" relative="1" as="geometry">
            <mxPoint x="-12" y="5" as="offset" />
          </mxGeometry>
        </mxCell>
        <mxCell id="rc2cW_Wql21K5ErHemMF-26" style="edgeStyle=orthogonalEdgeStyle;rounded=0;orthogonalLoop=1;jettySize=auto;html=1;exitX=1;exitY=0.5;exitDx=0;exitDy=0;entryX=0;entryY=0.5;entryDx=0;entryDy=0;strokeColor=#FF0080;" parent="1" source="rc2cW_Wql21K5ErHemMF-4" target="LAHnYcq1SH6pc476glKl-31" edge="1">
          <mxGeometry relative="1" as="geometry" />
        </mxCell>
        <mxCell id="rc2cW_Wql21K5ErHemMF-27" style="rounded=0;orthogonalLoop=1;jettySize=auto;html=1;exitX=1;exitY=0.5;exitDx=0;exitDy=0;entryX=0;entryY=0.5;entryDx=0;entryDy=0;strokeColor=#FF0080;" parent="1" source="rc2cW_Wql21K5ErHemMF-4" target="LAHnYcq1SH6pc476glKl-32" edge="1">
          <mxGeometry relative="1" as="geometry" />
        </mxCell>
        <mxCell id="rc2cW_Wql21K5ErHemMF-4" value="IPVS L4LB" style="shape=hexagon;perimeter=hexagonPerimeter2;whiteSpace=wrap;html=1;fixedSize=1;fontFamily=Courier New;fontSize=12;fillColor=#647687;strokeColor=#314354;fontColor=#ffffff;" parent="1" vertex="1">
          <mxGeometry x="280" y="500" width="120" height="80" as="geometry" />
        </mxCell>
        <mxCell id="rc2cW_Wql21K5ErHemMF-28" style="edgeStyle=orthogonalEdgeStyle;rounded=0;orthogonalLoop=1;jettySize=auto;html=1;exitX=1;exitY=0.5;exitDx=0;exitDy=0;entryX=0;entryY=0.5;entryDx=0;entryDy=0;strokeColor=#00FFFF;" parent="1" source="rc2cW_Wql21K5ErHemMF-5" target="LAHnYcq1SH6pc476glKl-32" edge="1">
          <mxGeometry relative="1" as="geometry" />
        </mxCell>
        <mxCell id="rc2cW_Wql21K5ErHemMF-29" style="rounded=0;orthogonalLoop=1;jettySize=auto;html=1;exitX=1;exitY=0.5;exitDx=0;exitDy=0;entryX=0;entryY=0.5;entryDx=0;entryDy=0;strokeColor=#00FFFF;" parent="1" source="rc2cW_Wql21K5ErHemMF-5" target="LAHnYcq1SH6pc476glKl-31" edge="1">
          <mxGeometry relative="1" as="geometry" />
        </mxCell>
        <mxCell id="rc2cW_Wql21K5ErHemMF-5" value="IPVS L4LB" style="shape=hexagon;perimeter=hexagonPerimeter2;whiteSpace=wrap;html=1;fixedSize=1;fontFamily=Courier New;fontSize=12;fillColor=#647687;strokeColor=#314354;fontColor=#ffffff;" parent="1" vertex="1">
          <mxGeometry x="260" y="700" width="120" height="80" as="geometry" />
        </mxCell>
        <mxCell id="rc2cW_Wql21K5ErHemMF-6" value="192.168.96.102" style="text;html=1;align=center;verticalAlign=middle;resizable=0;points=[];autosize=1;strokeColor=none;fillColor=none;fontSize=16;fontFamily=Courier New;" parent="1" vertex="1">
          <mxGeometry x="260" y="470" width="160" height="30" as="geometry" />
        </mxCell>
        <mxCell id="rc2cW_Wql21K5ErHemMF-7" value="192.168.96.103" style="text;html=1;align=center;verticalAlign=middle;resizable=0;points=[];autosize=1;strokeColor=none;fillColor=none;fontSize=16;fontFamily=Courier New;" parent="1" vertex="1">
          <mxGeometry x="250" y="670" width="160" height="30" as="geometry" />
        </mxCell>
        <mxCell id="rc2cW_Wql21K5ErHemMF-9" style="rounded=0;orthogonalLoop=1;jettySize=auto;html=1;exitX=0.025;exitY=0.413;exitDx=0;exitDy=0;entryX=0.912;entryY=0.813;entryDx=0;entryDy=0;entryPerimeter=0;exitPerimeter=0;strokeColor=#0000FF;" parent="1" source="rc2cW_Wql21K5ErHemMF-4" target="LAHnYcq1SH6pc476glKl-35" edge="1">
          <mxGeometry relative="1" as="geometry" />
        </mxCell>
        <mxCell id="rc2cW_Wql21K5ErHemMF-13" value="BGP" style="edgeLabel;html=1;align=center;verticalAlign=middle;resizable=0;points=[];" parent="rc2cW_Wql21K5ErHemMF-9" vertex="1" connectable="0">
          <mxGeometry x="-0.5252" y="4" relative="1" as="geometry">
            <mxPoint x="-21" y="-24" as="offset" />
          </mxGeometry>
        </mxCell>
        <mxCell id="rc2cW_Wql21K5ErHemMF-11" style="rounded=0;orthogonalLoop=1;jettySize=auto;html=1;exitX=0;exitY=0.5;exitDx=0;exitDy=0;entryX=0.765;entryY=0.873;entryDx=0;entryDy=0;entryPerimeter=0;strokeColor=#0000FF;" parent="1" source="rc2cW_Wql21K5ErHemMF-5" target="LAHnYcq1SH6pc476glKl-35" edge="1">
          <mxGeometry relative="1" as="geometry" />
        </mxCell>
        <mxCell id="rc2cW_Wql21K5ErHemMF-12" value="BGP" style="edgeLabel;html=1;align=center;verticalAlign=middle;resizable=0;points=[];" parent="rc2cW_Wql21K5ErHemMF-11" vertex="1" connectable="0">
          <mxGeometry x="0.3965" relative="1" as="geometry">
            <mxPoint y="35" as="offset" />
          </mxGeometry>
        </mxCell>
        <mxCell id="rc2cW_Wql21K5ErHemMF-30" style="edgeStyle=orthogonalEdgeStyle;rounded=0;orthogonalLoop=1;jettySize=auto;html=1;exitX=1;exitY=0.5;exitDx=0;exitDy=0;entryX=0;entryY=0.643;entryDx=0;entryDy=0;entryPerimeter=0;curved=1;" parent="1" source="LAHnYcq1SH6pc476glKl-32" target="LAHnYcq1SH6pc476glKl-23" edge="1">
          <mxGeometry relative="1" as="geometry" />
        </mxCell>
        <mxCell id="rc2cW_Wql21K5ErHemMF-31" style="edgeStyle=orthogonalEdgeStyle;rounded=0;orthogonalLoop=1;jettySize=auto;html=1;exitX=1;exitY=0.5;exitDx=0;exitDy=0;entryX=0;entryY=0.357;entryDx=0;entryDy=0;entryPerimeter=0;curved=1;" parent="1" source="LAHnYcq1SH6pc476glKl-31" target="LAHnYcq1SH6pc476glKl-23" edge="1">
          <mxGeometry relative="1" as="geometry" />
        </mxCell>
        <mxCell id="rc2cW_Wql21K5ErHemMF-34" value="177.168.95.100" style="text;html=1;align=center;verticalAlign=middle;resizable=0;points=[];autosize=1;strokeColor=none;fillColor=none;fontSize=13;fontFamily=Courier New;fontColor=#0000FF;" parent="1" vertex="1">
          <mxGeometry x="905" y="400" width="130" height="30" as="geometry" />
        </mxCell>
        <mxCell id="rc2cW_Wql21K5ErHemMF-35" value="177.168.95.101" style="text;html=1;align=center;verticalAlign=middle;resizable=0;points=[];autosize=1;strokeColor=none;fillColor=none;fontSize=13;fontFamily=Courier New;fontColor=#0000FF;" parent="1" vertex="1">
          <mxGeometry x="905" y="420" width="130" height="30" as="geometry" />
        </mxCell>
        <mxCell id="rc2cW_Wql21K5ErHemMF-36" value="177.200.95.102" style="text;html=1;align=center;verticalAlign=middle;resizable=0;points=[];autosize=1;strokeColor=none;fillColor=none;fontSize=13;fontFamily=Courier New;fontColor=#0000FF;" parent="1" vertex="1">
          <mxGeometry x="905" y="490" width="130" height="30" as="geometry" />
        </mxCell>
        <mxCell id="rc2cW_Wql21K5ErHemMF-37" value="177.200.95.103" style="text;html=1;align=center;verticalAlign=middle;resizable=0;points=[];autosize=1;strokeColor=none;fillColor=none;fontSize=13;fontFamily=Courier New;fontColor=#0000FF;" parent="1" vertex="1">
          <mxGeometry x="905" y="510" width="130" height="30" as="geometry" />
        </mxCell>
        <mxCell id="xqaVHx9Yg1vEfQ7Dxr32-2" style="edgeStyle=orthogonalEdgeStyle;rounded=0;orthogonalLoop=1;jettySize=auto;html=1;exitX=1;exitY=0.75;exitDx=0;exitDy=0;entryX=0.849;entryY=0.802;entryDx=0;entryDy=0;entryPerimeter=0;strokeColor=#FF0080;" edge="1" parent="1" source="LAHnYcq1SH6pc476glKl-32" target="LAHnYcq1SH6pc476glKl-61">
          <mxGeometry relative="1" as="geometry">
            <Array as="points">
              <mxPoint x="600" y="757" />
              <mxPoint x="600" y="820" />
              <mxPoint x="170" y="820" />
            </Array>
          </mxGeometry>
        </mxCell>
        <mxCell id="xqaVHx9Yg1vEfQ7Dxr32-4" style="edgeStyle=orthogonalEdgeStyle;rounded=0;orthogonalLoop=1;jettySize=auto;html=1;strokeColor=#FF0080;" edge="1" parent="1">
          <mxGeometry relative="1" as="geometry">
            <mxPoint x="590" y="560" as="sourcePoint" />
            <mxPoint x="160" y="790" as="targetPoint" />
            <Array as="points">
              <mxPoint x="610" y="559" />
              <mxPoint x="610" y="831" />
              <mxPoint x="160" y="831" />
            </Array>
          </mxGeometry>
        </mxCell>
        <mxCell id="xqaVHx9Yg1vEfQ7Dxr32-5" style="edgeStyle=orthogonalEdgeStyle;rounded=0;orthogonalLoop=1;jettySize=auto;html=1;exitX=1;exitY=0.75;exitDx=0;exitDy=0;strokeColor=#FF0080;" edge="1" parent="1" source="LAHnYcq1SH6pc476glKl-29">
          <mxGeometry relative="1" as="geometry">
            <mxPoint x="180" y="780" as="targetPoint" />
            <Array as="points">
              <mxPoint x="620" y="357" />
              <mxPoint x="620" y="810" />
              <mxPoint x="180" y="810" />
            </Array>
          </mxGeometry>
        </mxCell>
        <mxCell id="xqaVHx9Yg1vEfQ7Dxr32-6" style="edgeStyle=orthogonalEdgeStyle;rounded=0;orthogonalLoop=1;jettySize=auto;html=1;exitX=1;exitY=0.75;exitDx=0;exitDy=0;entryX=0.95;entryY=0.734;entryDx=0;entryDy=0;entryPerimeter=0;strokeColor=#FF0080;" edge="1" parent="1" source="LAHnYcq1SH6pc476glKl-28" target="LAHnYcq1SH6pc476glKl-61">
          <mxGeometry relative="1" as="geometry">
            <Array as="points">
              <mxPoint x="630" y="157" />
              <mxPoint x="630" y="800" />
              <mxPoint x="190" y="800" />
            </Array>
          </mxGeometry>
        </mxCell>
        <mxCell id="xqaVHx9Yg1vEfQ7Dxr32-7" value="DSR" style="edgeLabel;html=1;align=center;verticalAlign=middle;resizable=0;points=[];" vertex="1" connectable="0" parent="xqaVHx9Yg1vEfQ7Dxr32-6">
          <mxGeometry x="0.5588" y="-2" relative="1" as="geometry">
            <mxPoint x="-29" y="12" as="offset" />
          </mxGeometry>
        </mxCell>
      </root>
    </mxGraphModel>
  </diagram>
</mxfile>
